<svg width="32" height="32" viewBox="0 0 32 32" fill="none" xmlns="http://www.w3.org/2000/svg">
<path d="M27.3452 7.36342C26.4664 7.45264 25.6084 7.68678 24.8061 8.05635L6.00116 16.4403C5.44362 16.6902 5.05839 16.4034 4.53901 16.017C3.63439 15.3523 2.29532 14.412 1.88547 14.0945C1.23809 13.5985 -0.366837 13.905 0.0762395 14.9019L2.42209 20.1708C3.19255 21.8939 7.19747 21.4828 14.1919 18.364C14.7864 18.0982 15.5605 17.74 16.2301 17.441L14.4602 26.8637C14.2325 27.7782 14.4664 28.0354 14.7679 27.9025L15.8067 27.441C16.3433 27.201 17.0867 26.3665 17.4609 25.5554L22.5378 14.5942C27.5962 12.2311 32.2252 9.86065 31.883 9.09512C31.4805 8.18681 29.7279 7.14188 27.3452 7.36342ZM8.61409 8.63235C8.1587 8.62496 7.76732 8.66804 7.49901 8.78742L6.46024 9.24773C6.15993 9.38312 6.20424 9.72773 7.03747 10.1708L11.2295 12.7099L15.883 10.6323L9.99993 8.82558C9.54882 8.69907 9.0826 8.63325 8.61409 8.63235Z" fill="#FBA316"/>
</svg>
