<svg width="382" height="306" viewBox="0 0 382 306" fill="none" xmlns="http://www.w3.org/2000/svg">
<path d="M54.9426 285.973C101.408 265.535 139.06 234.982 165.457 208.217C150.262 199.501 135.12 190.816 119.436 181.819C123.854 178.335 127.644 174.946 131.865 172.223C133.438 171.207 136.056 171.394 138.128 171.634C152.666 173.319 167.192 175.113 181.705 177.011C183.692 177.271 184.649 176.495 185.838 175.16C199.74 159.553 213.711 144.008 227.659 128.442C227.867 128.21 228.012 127.924 228.25 127.568C189.612 108.299 151.072 89.0786 112.161 69.6735C113.029 68.8805 113.634 68.2519 114.316 67.7225C115.235 67.0095 116.208 66.3664 117.166 65.7046C127.297 58.7023 123.536 59.6479 136.712 61.1981C147.189 62.4307 157.617 64.0831 168.066 65.5565C180.169 67.263 192.27 68.9754 204.372 70.689C216.967 72.4725 229.562 74.2581 242.156 76.0471C252.694 77.544 263.227 79.0828 273.777 80.486C274.717 80.611 276.064 80.1624 276.73 79.492C288.707 67.4393 300.535 55.2376 312.547 43.2194C325.742 30.0167 339.469 17.3941 354.562 6.34801C359.59 2.66791 364.902 -0.448197 371.5 0.118697C373.14 0.259651 374.816 0.523071 376.368 1.04764C380.656 2.49664 382.255 5.46303 381.027 9.80929C378.558 18.546 374.097 26.347 369.281 33.9431C359.909 48.7245 348.153 61.5615 336.09 74.118C326.626 83.9684 316.992 93.6549 307.384 103.366C306.274 104.488 305.995 105.431 306.296 107.064C309.598 124.961 312.761 142.883 315.96 160.799C319.743 181.986 323.54 203.17 327.298 224.361C328.706 232.299 329.988 240.26 331.395 248.199C331.794 250.448 331.494 252.442 330.227 254.372C327.093 259.144 324.037 263.967 320.525 269.43C300.069 229.49 279.98 190.268 259.754 150.777C256.355 153.913 253.132 156.871 249.925 159.846C236.552 172.249 223.167 184.639 209.854 197.106C209.092 197.82 208.469 199.21 208.556 200.219C209.339 209.338 210.296 218.443 211.201 227.551C211.778 233.346 212.321 239.145 212.952 244.934C213.122 246.484 212.712 247.576 211.517 248.633C207.407 252.266 203.396 256.012 198.934 260.093C191.283 246.058 183.763 232.265 176.134 218.273C172.633 221.571 169.345 224.706 166.016 227.797C151.973 240.833 137.46 253.301 121.648 264.175C96.0991 281.743 68.2701 294.173 37.8506 300.333C25.4992 302.834 12.9201 304.212 0.360352 305.655C18.8984 300.112 37.1261 293.905 54.9426 285.973Z" fill="#EBEBEB"/>
</svg>
