<svg width="30" height="30" viewBox="0 0 30 30" fill="none" xmlns="http://www.w3.org/2000/svg">
<path d="M21 10.5C23.9999 10.5 25.5 11.2654 26.742 12.5C28.5 14.2474 28.5 16.1399 28.5 19.57C28.5 23 28.5 24.652 26.742 26.326C24.984 28 22.1565 28 16.5 28H13.5C7.84347 28 5.01447 28 3.25797 26.326C1.50147 24.652 1.49997 23.1399 1.49997 19.57C1.49997 16 1.5736 14.1741 3.25778 12.5C4.94197 10.8259 5.99992 10.5 8.99997 10.5M15.0375 1.99996L15 19M15.0375 1.99996C14.7771 1.99664 14.5248 2.0902 14.3295 2.26246C12.9705 3.40996 10.5 6.39346 10.5 6.39346M15.0375 1.99996C15.2717 2.01379 15.4946 2.10568 15.6705 2.26096C17.0295 3.40996 19.5 6.39496 19.5 6.39496" stroke="#2C2D2E" stroke-width="2.25" stroke-linecap="round" stroke-linejoin="round"/>
</svg>
